<mxfile host="65bd71144e">
    <diagram id="N_ecSD0ZlI3yLIqIZA2R" name="PÃ¡gina-1">
        <mxGraphModel dx="1489" dy="461" grid="1" gridSize="10" guides="1" tooltips="1" connect="1" arrows="1" fold="1" page="1" pageScale="1" pageWidth="827" pageHeight="1169" math="0" shadow="0">
            <root>
                <mxCell id="0"/>
                <mxCell id="1" parent="0"/>
                <mxCell id="4" value="" style="edgeStyle=none;html=1;fontColor=#000000;" parent="1" source="2" target="3" edge="1">
                    <mxGeometry relative="1" as="geometry"/>
                </mxCell>
                <mxCell id="2" value="&lt;font color=&quot;#000000&quot;&gt;inicio&lt;/font&gt;" style="ellipse;whiteSpace=wrap;html=1;fillColor=#fff2cc;gradientColor=#ffd966;strokeColor=#d6b656;" parent="1" vertex="1">
                    <mxGeometry x="500" y="70" width="120" height="50" as="geometry"/>
                </mxCell>
                <mxCell id="6" value="" style="edgeStyle=none;html=1;fontColor=#000000;" parent="1" source="3" target="5" edge="1">
                    <mxGeometry relative="1" as="geometry"/>
                </mxCell>
                <mxCell id="3" value="&lt;font color=&quot;#000000&quot;&gt;1--sumar&lt;br&gt;2--restar&lt;br&gt;3--multiplicacion&lt;br&gt;4--division&lt;br&gt;5--potencia&lt;br&gt;6--logaritmo&lt;/font&gt;" style="shape=document;whiteSpace=wrap;html=1;boundedLbl=1;fillColor=#dae8fc;gradientColor=#7ea6e0;strokeColor=#6c8ebf;" parent="1" vertex="1">
                    <mxGeometry x="510" y="140" width="100" height="120" as="geometry"/>
                </mxCell>
                <mxCell id="8" value="" style="edgeStyle=none;html=1;fontColor=#000000;" parent="1" source="5" target="7" edge="1">
                    <mxGeometry relative="1" as="geometry"/>
                </mxCell>
                <mxCell id="5" value="&lt;font color=&quot;#000000&quot;&gt;x,y&lt;/font&gt;" style="shape=parallelogram;perimeter=parallelogramPerimeter;whiteSpace=wrap;html=1;fixedSize=1;fillColor=#f8cecc;strokeColor=#b85450;gradientColor=#ea6b66;" parent="1" vertex="1">
                    <mxGeometry x="500" y="280" width="120" height="40" as="geometry"/>
                </mxCell>
                <mxCell id="10" value="" style="edgeStyle=none;html=1;fontColor=#000000;" parent="1" source="7" target="9" edge="1">
                    <mxGeometry relative="1" as="geometry"/>
                </mxCell>
                <mxCell id="7" value="&lt;font color=&quot;#000000&quot;&gt;&lt;br&gt;opc&lt;/font&gt;" style="shape=parallelogram;perimeter=parallelogramPerimeter;whiteSpace=wrap;html=1;fixedSize=1;fillColor=#f5f5f5;strokeColor=#666666;gradientColor=#b3b3b3;" parent="1" vertex="1">
                    <mxGeometry x="500" y="360" width="120" height="40" as="geometry"/>
                </mxCell>
                <mxCell id="14" value="" style="edgeStyle=none;html=1;fontColor=#000000;" parent="1" source="9" target="13" edge="1">
                    <mxGeometry relative="1" as="geometry">
                        <Array as="points">
                            <mxPoint x="680" y="470"/>
                        </Array>
                    </mxGeometry>
                </mxCell>
                <mxCell id="16" value="" style="edgeStyle=none;html=1;fontColor=#000000;" parent="1" source="9" target="17" edge="1">
                    <mxGeometry relative="1" as="geometry">
                        <mxPoint x="130" y="520" as="targetPoint"/>
                        <Array as="points">
                            <mxPoint x="480" y="470"/>
                        </Array>
                    </mxGeometry>
                </mxCell>
                <mxCell id="9" value="&lt;font color=&quot;#000000&quot;&gt;opc == 1&lt;/font&gt;" style="rhombus;whiteSpace=wrap;html=1;fillColor=#d5e8d4;strokeColor=#82b366;gradientColor=#97d077;" parent="1" vertex="1">
                    <mxGeometry x="520" y="430" width="80" height="80" as="geometry"/>
                </mxCell>
                <mxCell id="7lPcvmLrPYJDA7pX5qX2-51" style="edgeStyle=none;html=1;fontColor=#000000;endArrow=none;endFill=0;" parent="1" source="13" edge="1">
                    <mxGeometry relative="1" as="geometry">
                        <mxPoint x="680" y="960" as="targetPoint"/>
                    </mxGeometry>
                </mxCell>
                <mxCell id="13" value="&lt;font color=&quot;#000000&quot;&gt;r = x+y&lt;/font&gt;" style="whiteSpace=wrap;html=1;fillColor=#e6d0de;strokeColor=#996185;gradientColor=#d5739d;" parent="1" vertex="1">
                    <mxGeometry x="640" y="490" width="80" height="40" as="geometry"/>
                </mxCell>
                <mxCell id="19" value="" style="edgeStyle=none;html=1;fontColor=#000000;" parent="1" source="17" target="18" edge="1">
                    <mxGeometry relative="1" as="geometry">
                        <Array as="points">
                            <mxPoint x="600" y="540"/>
                        </Array>
                    </mxGeometry>
                </mxCell>
                <mxCell id="7lPcvmLrPYJDA7pX5qX2-23" value="" style="edgeStyle=none;html=1;fontColor=#000000;" parent="1" source="17" target="7lPcvmLrPYJDA7pX5qX2-25" edge="1">
                    <mxGeometry relative="1" as="geometry">
                        <mxPoint x="370" y="560" as="targetPoint"/>
                        <Array as="points">
                            <mxPoint x="374" y="540"/>
                        </Array>
                    </mxGeometry>
                </mxCell>
                <mxCell id="17" value="&lt;font color=&quot;#000000&quot;&gt;opc == 2&lt;/font&gt;" style="rhombus;whiteSpace=wrap;html=1;fillColor=#ffcd28;gradientColor=#ffa500;strokeColor=#d79b00;" parent="1" vertex="1">
                    <mxGeometry x="440" y="500" width="80" height="80" as="geometry"/>
                </mxCell>
                <mxCell id="7lPcvmLrPYJDA7pX5qX2-52" style="edgeStyle=none;html=1;exitX=0.5;exitY=1;exitDx=0;exitDy=0;fontColor=#000000;endArrow=none;endFill=0;" parent="1" source="18" edge="1">
                    <mxGeometry relative="1" as="geometry">
                        <mxPoint x="600" y="960" as="targetPoint"/>
                    </mxGeometry>
                </mxCell>
                <mxCell id="18" value="&lt;font color=&quot;#000000&quot;&gt;r = x-y&lt;/font&gt;" style="whiteSpace=wrap;html=1;fillColor=#eeeeee;strokeColor=#36393d;" parent="1" vertex="1">
                    <mxGeometry x="560" y="560" width="80" height="40" as="geometry"/>
                </mxCell>
                <mxCell id="7lPcvmLrPYJDA7pX5qX2-34" style="edgeStyle=none;html=1;entryX=0.5;entryY=0;entryDx=0;entryDy=0;fontColor=#000000;" parent="1" source="7lPcvmLrPYJDA7pX5qX2-25" target="7lPcvmLrPYJDA7pX5qX2-31" edge="1">
                    <mxGeometry relative="1" as="geometry">
                        <Array as="points">
                            <mxPoint x="490" y="610"/>
                        </Array>
                    </mxGeometry>
                </mxCell>
                <mxCell id="7lPcvmLrPYJDA7pX5qX2-36" value="" style="edgeStyle=none;html=1;fontColor=#000000;" parent="1" source="7lPcvmLrPYJDA7pX5qX2-25" target="7lPcvmLrPYJDA7pX5qX2-35" edge="1">
                    <mxGeometry relative="1" as="geometry">
                        <Array as="points">
                            <mxPoint x="270" y="610"/>
                        </Array>
                    </mxGeometry>
                </mxCell>
                <mxCell id="7lPcvmLrPYJDA7pX5qX2-25" value="&lt;font color=&quot;#000000&quot;&gt;opc == 3&lt;/font&gt;" style="rhombus;whiteSpace=wrap;html=1;fillColor=#ffff88;strokeColor=#36393d;" parent="1" vertex="1">
                    <mxGeometry x="334" y="570" width="80" height="80" as="geometry"/>
                </mxCell>
                <mxCell id="7lPcvmLrPYJDA7pX5qX2-53" style="edgeStyle=none;html=1;exitX=0.5;exitY=1;exitDx=0;exitDy=0;fontColor=#000000;endArrow=none;endFill=0;" parent="1" source="7lPcvmLrPYJDA7pX5qX2-31" edge="1">
                    <mxGeometry relative="1" as="geometry">
                        <mxPoint x="490" y="960" as="targetPoint"/>
                    </mxGeometry>
                </mxCell>
                <mxCell id="7lPcvmLrPYJDA7pX5qX2-31" value="&lt;font color=&quot;#000000&quot;&gt;r = x*y&lt;/font&gt;" style="rounded=0;whiteSpace=wrap;html=1;fillColor=#cdeb8b;strokeColor=#36393d;" parent="1" vertex="1">
                    <mxGeometry x="430" y="630" width="120" height="40" as="geometry"/>
                </mxCell>
                <mxCell id="7lPcvmLrPYJDA7pX5qX2-40" style="edgeStyle=none;html=1;entryX=0.5;entryY=0;entryDx=0;entryDy=0;fontColor=#000000;" parent="1" source="7lPcvmLrPYJDA7pX5qX2-35" target="7lPcvmLrPYJDA7pX5qX2-39" edge="1">
                    <mxGeometry relative="1" as="geometry">
                        <Array as="points">
                            <mxPoint x="380" y="680"/>
                        </Array>
                    </mxGeometry>
                </mxCell>
                <mxCell id="7lPcvmLrPYJDA7pX5qX2-42" value="" style="edgeStyle=none;html=1;fontColor=#000000;" parent="1" source="7lPcvmLrPYJDA7pX5qX2-35" target="7lPcvmLrPYJDA7pX5qX2-41" edge="1">
                    <mxGeometry relative="1" as="geometry">
                        <Array as="points">
                            <mxPoint x="190" y="680"/>
                        </Array>
                    </mxGeometry>
                </mxCell>
                <mxCell id="7lPcvmLrPYJDA7pX5qX2-35" value="&lt;font color=&quot;#000000&quot;&gt;opc == 4&lt;/font&gt;" style="rhombus;whiteSpace=wrap;html=1;fillColor=#ffcccc;strokeColor=#36393d;" parent="1" vertex="1">
                    <mxGeometry x="230" y="640" width="80" height="80" as="geometry"/>
                </mxCell>
                <mxCell id="7lPcvmLrPYJDA7pX5qX2-54" style="edgeStyle=none;html=1;exitX=0.5;exitY=1;exitDx=0;exitDy=0;fontColor=#000000;endArrow=classic;endFill=1;" parent="1" edge="1">
                    <mxGeometry relative="1" as="geometry">
                        <mxPoint x="378" y="1000" as="targetPoint"/>
                        <mxPoint x="378" y="760" as="sourcePoint"/>
                    </mxGeometry>
                </mxCell>
                <mxCell id="7lPcvmLrPYJDA7pX5qX2-39" value="&lt;font color=&quot;#000000&quot;&gt;r = x/y&lt;/font&gt;" style="rounded=0;whiteSpace=wrap;html=1;fillColor=#cce5ff;strokeColor=#36393d;" parent="1" vertex="1">
                    <mxGeometry x="330" y="720" width="100" height="40" as="geometry"/>
                </mxCell>
                <mxCell id="7lPcvmLrPYJDA7pX5qX2-45" style="edgeStyle=none;html=1;exitX=1;exitY=0.5;exitDx=0;exitDy=0;fontColor=#000000;entryX=0.578;entryY=0.05;entryDx=0;entryDy=0;entryPerimeter=0;" parent="1" source="7lPcvmLrPYJDA7pX5qX2-41" target="7lPcvmLrPYJDA7pX5qX2-44" edge="1">
                    <mxGeometry relative="1" as="geometry">
                        <mxPoint x="280" y="800" as="targetPoint"/>
                        <Array as="points">
                            <mxPoint x="280" y="750"/>
                        </Array>
                    </mxGeometry>
                </mxCell>
                <mxCell id="7lPcvmLrPYJDA7pX5qX2-48" style="edgeStyle=none;html=1;exitX=0;exitY=0.5;exitDx=0;exitDy=0;fontColor=#000000;" parent="1" source="7lPcvmLrPYJDA7pX5qX2-41" edge="1">
                    <mxGeometry relative="1" as="geometry">
                        <mxPoint x="90" y="780" as="targetPoint"/>
                        <Array as="points">
                            <mxPoint x="90" y="750"/>
                        </Array>
                    </mxGeometry>
                </mxCell>
                <mxCell id="7lPcvmLrPYJDA7pX5qX2-41" value="&lt;font color=&quot;#000000&quot;&gt;opc == 5&lt;/font&gt;" style="rhombus;whiteSpace=wrap;html=1;fillColor=#f9f7ed;strokeColor=#36393d;" parent="1" vertex="1">
                    <mxGeometry x="150" y="710" width="80" height="80" as="geometry"/>
                </mxCell>
                <mxCell id="7lPcvmLrPYJDA7pX5qX2-55" style="edgeStyle=none;html=1;exitX=0.5;exitY=1;exitDx=0;exitDy=0;fontColor=#000000;endArrow=none;endFill=0;" parent="1" source="7lPcvmLrPYJDA7pX5qX2-44" edge="1">
                    <mxGeometry relative="1" as="geometry">
                        <mxPoint x="275" y="960" as="targetPoint"/>
                    </mxGeometry>
                </mxCell>
                <mxCell id="7lPcvmLrPYJDA7pX5qX2-44" value="&lt;font color=&quot;#000000&quot;&gt;r = x^y&lt;/font&gt;" style="rounded=0;whiteSpace=wrap;html=1;fillColor=#f8cecc;gradientColor=#ea6b66;strokeColor=#b85450;" parent="1" vertex="1">
                    <mxGeometry x="230" y="760" width="90" height="40" as="geometry"/>
                </mxCell>
                <mxCell id="7lPcvmLrPYJDA7pX5qX2-57" style="edgeStyle=none;html=1;exitX=1;exitY=0.5;exitDx=0;exitDy=0;fontColor=#000000;endArrow=classic;endFill=1;entryX=0.578;entryY=0.05;entryDx=0;entryDy=0;entryPerimeter=0;" parent="1" source="7lPcvmLrPYJDA7pX5qX2-46" edge="1">
                    <mxGeometry relative="1" as="geometry">
                        <mxPoint x="202.01999999999998" y="842" as="targetPoint"/>
                        <Array as="points">
                            <mxPoint x="200" y="820"/>
                        </Array>
                    </mxGeometry>
                </mxCell>
                <mxCell id="7lPcvmLrPYJDA7pX5qX2-60" style="edgeStyle=none;html=1;fontColor=#000000;endArrow=none;endFill=0;" parent="1" edge="1">
                    <mxGeometry relative="1" as="geometry">
                        <mxPoint x="90" y="960" as="targetPoint"/>
                        <mxPoint x="680" y="960" as="sourcePoint"/>
                        <Array as="points">
                            <mxPoint x="90" y="960"/>
                        </Array>
                    </mxGeometry>
                </mxCell>
                <mxCell id="23" value="" style="edgeStyle=none;html=1;endArrow=classic;endFill=1;" parent="1" source="7lPcvmLrPYJDA7pX5qX2-46" target="22" edge="1">
                    <mxGeometry relative="1" as="geometry">
                        <Array as="points">
                            <mxPoint x="-35" y="820"/>
                        </Array>
                    </mxGeometry>
                </mxCell>
                <mxCell id="7lPcvmLrPYJDA7pX5qX2-46" value="&lt;font color=&quot;#000000&quot;&gt;opc = 6&lt;/font&gt;" style="rhombus;whiteSpace=wrap;html=1;fillColor=#dae8fc;gradientColor=#7ea6e0;strokeColor=#6c8ebf;" parent="1" vertex="1">
                    <mxGeometry x="50" y="780" width="80" height="80" as="geometry"/>
                </mxCell>
                <mxCell id="7lPcvmLrPYJDA7pX5qX2-56" style="edgeStyle=none;html=1;exitX=0.5;exitY=1;exitDx=0;exitDy=0;fontColor=#000000;endArrow=none;endFill=0;" parent="1" edge="1">
                    <mxGeometry relative="1" as="geometry">
                        <mxPoint x="195" y="960" as="targetPoint"/>
                        <mxPoint x="195" y="880" as="sourcePoint"/>
                    </mxGeometry>
                </mxCell>
                <mxCell id="7lPcvmLrPYJDA7pX5qX2-63" value="&lt;font color=&quot;#000000&quot;&gt;fin&lt;/font&gt;" style="ellipse;whiteSpace=wrap;html=1;fillColor=#e6d0de;gradientColor=#d5739d;strokeColor=#996185;" parent="1" vertex="1">
                    <mxGeometry x="325" y="1080" width="120" height="50" as="geometry"/>
                </mxCell>
                <mxCell id="24" style="edgeStyle=none;html=1;exitX=0.5;exitY=1;exitDx=0;exitDy=0;fontColor=#000000;endArrow=none;endFill=0;" parent="1" source="22" edge="1">
                    <mxGeometry relative="1" as="geometry">
                        <mxPoint x="90" y="960" as="targetPoint"/>
                        <Array as="points">
                            <mxPoint x="-35" y="960"/>
                        </Array>
                    </mxGeometry>
                </mxCell>
                <mxCell id="22" value="&lt;font color=&quot;#000000&quot;&gt;r = no valido&lt;/font&gt;" style="whiteSpace=wrap;html=1;fillColor=#bac8d3;strokeColor=#23445d;" parent="1" vertex="1">
                    <mxGeometry x="-80" y="860" width="90" height="40" as="geometry"/>
                </mxCell>
                <mxCell id="26" value="" style="edgeStyle=none;html=1;fontColor=#000000;endArrow=classic;endFill=1;" parent="1" source="25" target="7lPcvmLrPYJDA7pX5qX2-63" edge="1">
                    <mxGeometry relative="1" as="geometry"/>
                </mxCell>
                <mxCell id="25" value="&lt;font color=&quot;#000000&quot;&gt;r&lt;/font&gt;" style="shape=document;whiteSpace=wrap;html=1;boundedLbl=1;fillColor=#b0e3e6;strokeColor=#0e8088;" parent="1" vertex="1">
                    <mxGeometry x="340" y="1000" width="90" height="50" as="geometry"/>
                </mxCell>
                <mxCell id="27" value="r = logxy" style="rounded=0;whiteSpace=wrap;html=1;fillColor=#e3c800;fontColor=#000000;strokeColor=#B09500;" parent="1" vertex="1">
                    <mxGeometry x="150" y="840" width="100" height="40" as="geometry"/>
                </mxCell>
            </root>
        </mxGraphModel>
    </diagram>
    <diagram id="QIfrZffEmLpOa5yW95c_" name="PÃ¡gina-2">
        <mxGraphModel dx="662" dy="461" grid="1" gridSize="10" guides="1" tooltips="1" connect="1" arrows="1" fold="1" page="1" pageScale="1" pageWidth="827" pageHeight="1169" math="0" shadow="0">
            <root>
                <mxCell id="0"/>
                <mxCell id="1" parent="0"/>
            </root>
        </mxGraphModel>
    </diagram>
</mxfile>